{"glyphs":{"0":{"ha":869,"x_min":17,"x_max":853,"o":"m 17 449 q 115 791 17 671 q 436 911 214 911 q 676 853 583 911 q 810 692 768 796 q 853 449 853 588 q 756 104 853 225 q 436 -17 658 -17 q 196 41 289 -17 q 60 203 103 99 q 17 449 17 308 m 364 449 q 380 334 364 374 q 435 294 396 294 q 490 334 475 294 q 506 449 506 374 q 490 562 506 522 q 435 601 475 601 q 380 562 396 601 q 364 449 364 522 z "},"1":{"ha":489,"x_min":33,"x_max":456,"o":"m 103 0 l 103 569 l 33 569 l 33 858 l 456 893 l 456 0 l 103 0 z "},"2":{"ha":828,"x_min":17,"x_max":817,"o":"m 807 372 q 665 356 746 365 q 506 336 585 346 q 369 319 426 326 l 369 268 l 811 268 l 810 -8 l 26 0 q 24 60 26 15 q 20 158 21 104 q 26 258 19 213 q 72 358 35 319 q 161 407 110 397 q 299 431 224 421 q 472 450 375 442 l 472 526 q 458 592 472 568 q 422 617 444 617 q 381 580 394 617 q 361 482 367 543 l 17 510 q 74 728 32 639 q 205 863 117 817 q 444 910 293 910 q 668 856 585 910 q 784 683 751 801 q 807 372 817 565 z "},"3":{"ha":826,"x_min":17,"x_max":818,"o":"m 553 453 l 553 417 l 808 376 q 712 78 815 169 q 403 -14 608 -14 q 134 69 233 -14 q 17 310 35 153 l 361 338 q 384 292 371 306 q 422 279 397 279 q 458 292 444 279 q 472 328 472 306 l 472 368 q 351 383 408 378 q 232 397 293 389 l 232 501 q 344 514 293 508 q 472 531 396 519 l 472 568 q 458 603 472 590 q 422 617 444 617 q 384 603 397 617 q 361 558 371 590 l 17 586 q 78 776 31 706 q 216 878 126 847 q 444 910 306 910 q 730 803 642 910 q 808 468 818 696 l 553 453 z "},"4":{"ha":883,"x_min":17,"x_max":867,"o":"m 415 0 l 415 140 l 17 140 l 17 265 l 438 893 l 768 893 l 768 265 l 867 265 l 867 140 l 768 140 l 768 0 l 415 0 m 282 265 l 418 265 l 454 497 l 426 506 l 282 265 z "},"5":{"ha":824,"x_min":17,"x_max":839,"o":"m 307 596 l 294 517 l 788 517 q 749 117 839 249 q 425 -14 660 -14 q 229 17 317 -14 q 86 119 142 49 q 17 310 31 190 l 361 338 q 379 292 368 306 q 411 279 390 279 q 441 292 431 279 q 451 328 451 306 l 451 396 l 47 396 l 33 517 l 97 894 l 726 894 l 757 596 l 307 596 z "},"6":{"ha":869,"x_min":17,"x_max":853,"o":"m 17 438 q 49 642 17 556 q 140 784 82 728 q 271 870 197 840 q 425 907 344 900 q 626 903 539 917 q 779 871 713 889 l 760 567 q 646 583 700 576 q 540 588 592 589 q 372 556 458 586 q 222 478 286 525 l 233 438 q 324 483 272 461 q 433 521 376 506 q 540 538 489 536 q 770 479 688 544 q 853 283 853 414 q 746 60 853 136 q 436 -17 639 -17 q 124 99 231 -17 q 17 438 17 214 m 364 388 q 380 300 361 333 q 435 267 399 267 q 490 285 475 267 q 506 339 506 303 q 490 392 506 375 q 435 410 475 410 q 395 403 413 410 q 364 388 378 396 z "},"7":{"ha":679,"x_min":17,"x_max":663,"o":"m 153 0 l 306 574 l 17 574 l 17 893 l 663 893 l 663 593 l 508 0 l 153 0 z "},"8":{"ha":869,"x_min":17,"x_max":853,"o":"m 44 651 q 138 843 44 775 q 436 911 231 911 q 733 840 642 911 q 825 651 825 768 q 798 553 825 594 q 733 488 771 511 q 661 464 694 465 l 661 444 q 747 419 703 443 q 822 351 792 394 q 853 246 853 307 q 810 110 853 168 q 676 19 768 51 q 436 -14 583 -14 q 115 54 214 -14 q 17 246 17 122 q 48 349 17 306 q 125 417 79 393 q 215 444 171 442 l 215 464 q 141 490 181 467 q 73 554 101 513 q 44 651 44 596 m 378 556 q 390 520 378 532 q 435 508 403 508 q 479 520 467 508 q 492 556 492 532 q 479 590 492 578 q 435 601 467 601 q 390 590 403 601 q 378 556 378 578 m 364 342 q 380 308 364 319 q 435 296 396 296 q 490 308 475 296 q 506 342 506 319 q 490 377 506 365 q 435 389 475 389 q 380 377 396 389 q 364 342 364 365 z "},"9":{"ha":869,"x_min":17,"x_max":853,"o":"m 853 453 q 820 248 853 333 q 730 106 788 163 q 599 20 672 50 q 444 -17 525 -10 q 244 -13 331 -28 q 90 19 157 1 l 110 324 q 224 308 169 314 q 329 303 278 301 q 497 334 411 304 q 647 413 583 364 l 636 453 q 545 406 597 428 q 437 370 493 385 q 329 353 381 356 q 99 411 182 347 q 17 607 17 475 q 124 831 17 754 q 433 907 231 907 q 746 791 639 907 q 853 453 853 675 m 506 503 q 490 590 508 557 q 435 624 471 624 q 379 606 394 624 q 364 551 364 588 q 379 499 364 517 q 435 481 394 481 q 474 488 457 481 q 506 503 492 494 z "},"\u0000":{"ha":0,"x_min":0,"x_max":0,"o":""},"\r":{"ha":347,"x_min":0,"x_max":0,"o":""}," ":{"ha":433,"x_min":0,"x_max":0,"o":""},"a":{"ha":828,"x_min":17,"x_max":794,"o":"m 492 189 q 446 82 467 129 q 401 -17 425 35 q 114 35 208 -22 q 18 218 19 93 q 93 371 17 317 q 297 435 169 425 q 408 431 344 439 q 524 417 471 424 l 525 457 q 433 477 483 471 q 332 483 383 483 q 213 473 272 482 q 107 449 154 464 l 49 725 q 238 781 131 761 q 450 800 346 800 q 624 767 546 800 q 749 676 703 733 q 794 549 794 619 l 794 0 l 492 0 l 525 189 l 492 189 m 456 285 l 456 294 q 448 334 456 315 q 414 353 440 353 q 379 335 389 353 q 369 290 369 317 q 379 244 369 264 q 414 225 389 225 q 447 242 439 225 q 456 285 456 258 z "},"o":{"ha":839,"x_min":17,"x_max":822,"o":"m 17 392 q 66 613 17 522 q 206 752 115 704 q 419 800 297 800 q 633 749 543 800 q 773 606 724 697 q 822 392 822 514 q 714 90 822 196 q 419 -17 606 -17 q 206 35 297 -17 q 66 178 115 86 q 17 392 17 269 m 356 392 q 370 318 356 343 q 419 293 385 293 q 469 318 456 293 q 483 392 483 343 q 469 465 483 440 q 419 490 456 490 q 370 465 385 490 q 356 392 356 440 z "},"n":{"ha":876,"x_min":33,"x_max":843,"o":"m 33 0 l 33 783 l 386 783 l 369 501 l 403 501 l 465 801 q 656 776 571 804 q 792 699 742 749 q 843 586 843 649 l 843 0 l 490 0 l 490 401 q 444 451 490 451 q 411 444 425 451 q 386 426 397 436 l 386 0 l 33 0 z "},"h":{"ha":876,"x_min":33,"x_max":843,"o":"m 33 0 l 33 976 l 386 976 l 385 789 l 369 501 l 403 501 l 465 801 q 656 776 571 804 q 792 699 742 749 q 843 586 843 649 l 843 0 l 490 0 l 490 401 q 444 451 490 451 q 411 444 425 451 q 386 426 397 436 l 386 0 l 33 0 z "},"m":{"ha":1300,"x_min":33,"x_max":1267,"o":"m 33 0 l 33 783 l 386 783 l 369 501 l 403 501 l 465 801 q 609 788 540 803 q 730 742 678 772 q 808 672 782 713 q 826 586 835 632 l 810 501 l 843 501 l 906 801 q 1088 776 1006 804 q 1218 699 1169 749 q 1267 586 1267 649 l 1267 0 l 914 0 l 914 401 q 875 451 914 451 q 849 444 861 451 q 826 426 836 436 l 826 0 l 474 0 l 474 401 q 465 440 474 428 q 435 451 457 451 q 408 444 419 451 q 386 426 397 436 l 386 0 l 33 0 z "},"b":{"ha":868,"x_min":33,"x_max":851,"o":"m 33 0 l 33 976 l 386 976 l 369 626 l 403 626 q 467 756 418 711 q 586 800 515 800 q 721 758 661 800 q 816 631 781 715 q 851 418 851 546 q 749 93 851 203 q 469 -17 647 -17 q 430 74 450 25 q 392 167 410 122 q 367 242 375 211 l 333 242 l 364 0 l 33 0 m 450 293 q 500 318 486 293 q 514 392 514 343 q 500 465 514 440 q 450 490 486 490 q 403 473 421 490 q 386 419 386 456 l 386 365 q 403 313 386 333 q 450 293 421 293 z "},"c":{"ha":839,"x_min":17,"x_max":825,"o":"m 17 392 q 66 613 17 522 q 206 752 115 704 q 419 800 297 800 q 617 758 532 800 q 754 638 703 715 q 818 457 806 561 l 481 431 q 419 490 472 490 q 370 465 385 490 q 356 392 356 440 q 370 318 356 343 q 419 293 385 293 q 466 315 449 293 q 482 376 483 338 l 822 394 q 720 91 825 199 q 419 -17 615 -17 q 206 35 297 -17 q 66 178 115 86 q 17 392 17 269 z "},"d":{"ha":868,"x_min":17,"x_max":835,"o":"m 835 0 l 506 0 l 507 183 l 474 183 q 410 35 461 86 q 282 -17 358 -17 q 147 26 207 -17 q 51 153 86 68 q 17 365 17 238 q 119 690 17 581 q 399 800 222 800 q 437 726 414 771 q 481 635 460 682 q 515 551 503 589 l 549 551 l 482 783 l 482 976 l 835 976 l 835 0 m 418 293 q 465 310 447 293 q 482 364 482 328 l 482 418 q 465 470 482 450 q 418 490 447 490 q 369 465 383 490 q 356 392 356 440 q 369 318 356 343 q 418 293 383 293 z "},"e":{"ha":839,"x_min":17,"x_max":822,"o":"m 17 392 q 66 613 17 522 q 206 752 115 704 q 419 800 297 800 q 617 758 532 800 q 754 638 703 715 q 818 457 806 561 l 818 406 l 356 406 q 372 322 357 350 q 419 293 386 293 q 463 310 449 293 q 482 360 478 328 l 822 360 q 704 81 811 178 q 419 -17 597 -17 q 206 35 297 -17 q 66 178 115 86 q 17 392 17 269 m 357 457 l 476 457 q 419 540 465 540 q 357 457 364 540 z "},"f":{"ha":508,"x_min":-19,"x_max":597,"o":"m -19 531 l -19 594 l 33 594 l 33 731 q 72 857 33 800 q 172 948 111 914 q 303 982 233 982 q 451 962 376 982 q 597 907 525 942 l 539 622 q 441 644 493 636 q 340 651 389 651 q 260 648 292 651 q 200 639 229 644 l 200 594 l 508 594 l 508 531 l 386 531 l 386 0 l 33 0 l 33 531 l -19 531 z "},"g":{"ha":886,"x_min":7,"x_max":853,"o":"m 853 783 l 853 51 q 670 -134 793 -68 q 383 -203 547 -200 q 181 -187 278 -206 q 7 -128 85 -168 l 75 178 q 198 124 122 147 q 378 100 274 100 q 531 117 469 100 q 619 158 592 133 l 619 210 q 522 166 585 183 q 376 149 458 149 q 195 185 272 149 q 76 290 118 222 q 35 450 35 358 q 85 653 35 576 q 228 765 135 731 q 450 800 321 800 q 472 731 458 774 q 497 642 485 688 q 517 561 508 597 l 550 561 l 524 783 l 853 783 m 436 318 q 486 342 472 318 q 500 422 500 367 l 500 433 q 483 486 500 465 q 436 507 467 507 q 388 480 401 507 q 374 414 374 453 q 388 345 374 372 q 436 318 401 318 z "},"i":{"ha":419,"x_min":18,"x_max":407,"o":"m 18 853 q 72 975 18 943 q 214 1007 126 1007 q 353 975 300 1007 q 407 853 407 943 q 353 731 407 764 q 214 697 300 697 q 72 731 126 697 q 18 853 18 764 m 33 0 l 33 667 l 386 667 l 386 0 l 33 0 z "},"j":{"ha":419,"x_min":-11,"x_max":407,"o":"m 18 965 q 72 1085 18 1053 q 214 1117 126 1117 q 353 1085 300 1117 q 407 965 407 1053 q 353 840 407 874 q 214 807 300 807 q 72 840 126 807 q 18 965 18 874 m -11 -139 q 3 -60 -6 -103 q 19 20 11 -18 q 33 82 28 58 l 33 783 l 386 783 l 386 32 q 359 -91 376 -37 q 319 -208 342 -144 l -11 -139 z "},"k":{"ha":847,"x_min":33,"x_max":847,"o":"m 33 0 l 33 976 l 386 976 l 386 783 l 353 464 l 386 464 l 453 783 l 824 783 q 781 560 824 653 q 665 415 738 468 q 501 350 592 361 l 510 317 l 753 360 l 847 0 l 465 0 l 390 347 l 353 347 l 386 0 l 33 0 z "},"l":{"ha":419,"x_min":33,"x_max":386,"o":"m 33 0 l 33 976 l 386 976 l 386 0 l 33 0 z "},"p":{"ha":868,"x_min":33,"x_max":851,"o":"m 33 783 l 364 783 l 361 600 l 394 600 q 458 749 407 697 q 586 800 508 800 q 721 758 661 800 q 816 631 781 715 q 851 418 851 546 q 749 93 851 203 q 469 -17 647 -17 q 424 107 443 44 q 393 232 404 169 l 360 232 l 386 -193 l 33 -193 l 33 783 m 450 293 q 500 318 486 293 q 514 392 514 343 q 500 465 514 440 q 450 490 486 490 q 403 473 421 490 q 386 419 386 456 l 386 365 q 403 313 386 333 q 450 293 421 293 z "},"q":{"ha":868,"x_min":17,"x_max":835,"o":"m 835 783 l 835 -193 l 482 -193 l 499 157 l 465 157 q 401 28 450 72 q 282 -17 353 -17 q 147 26 207 -17 q 51 153 86 68 q 17 365 17 238 q 119 690 17 581 q 399 800 222 800 q 444 675 422 739 q 485 542 465 611 l 518 542 l 506 783 l 835 783 m 418 293 q 465 310 447 293 q 482 364 482 328 l 482 418 q 465 470 482 450 q 418 490 447 490 q 369 465 383 490 q 356 392 356 440 q 369 318 356 343 q 418 293 383 293 z "},"r":{"ha":693,"x_min":33,"x_max":693,"o":"m 33 0 l 33 783 l 386 783 l 343 472 l 376 472 l 465 800 q 581 786 522 800 q 676 749 639 772 l 693 407 l 386 365 l 386 0 l 33 0 z "},"s":{"ha":840,"x_min":17,"x_max":824,"o":"m 31 389 q 107 704 18 608 q 410 800 196 800 q 709 711 614 800 q 824 457 804 622 l 485 431 q 467 483 482 460 q 425 507 453 507 q 377 495 394 507 q 360 460 360 483 l 361 422 q 525 410 444 417 q 672 396 606 403 q 778 385 738 389 q 806 308 796 357 q 815 222 815 260 q 713 46 815 108 q 418 -17 610 -17 q 130 57 224 -17 q 17 300 36 131 l 361 319 q 379 283 367 306 q 428 260 392 260 q 476 306 476 260 l 476 339 q 299 357 385 347 q 144 375 214 367 q 31 389 75 383 z "},"t":{"ha":483,"x_min":-19,"x_max":469,"o":"m 469 10 q 344 -9 417 -1 q 214 -17 271 -17 q 124 6 165 -17 q 58 66 83 29 q 33 147 33 103 l 33 531 l -19 531 l -19 594 l 33 594 l 33 875 l 417 875 q 429 799 432 840 q 410 721 426 758 q 367 659 393 683 q 311 632 342 635 l 311 594 l 467 594 l 467 531 l 386 531 l 386 283 l 469 283 l 469 10 z "},"u":{"ha":876,"x_min":33,"x_max":843,"o":"m 843 783 l 843 0 l 490 0 l 507 282 l 474 282 l 411 -18 q 220 7 306 -21 q 84 85 135 35 q 33 197 33 135 l 33 783 l 386 783 l 386 382 q 432 332 386 332 q 465 340 450 332 q 490 357 479 347 l 490 783 l 843 783 z "},"v":{"ha":839,"x_min":0,"x_max":839,"o":"m 839 783 l 667 0 l 172 0 l 0 783 l 369 783 l 400 217 l 440 217 l 468 783 l 839 783 z "},"w":{"ha":1147,"x_min":0,"x_max":1147,"o":"m 172 0 l 0 783 l 369 783 l 400 300 l 432 300 l 468 783 l 678 783 l 715 300 l 747 300 l 776 783 l 1147 783 l 975 0 l 614 0 l 589 393 l 558 393 l 533 0 l 172 0 z "},"x":{"ha":793,"x_min":0,"x_max":793,"o":"m 336 783 l 444 500 l 475 514 l 422 783 l 775 783 l 614 394 l 793 0 l 457 0 l 344 289 l 315 275 l 369 0 l 17 0 l 181 389 l 0 783 l 336 783 z "},"y":{"ha":835,"x_min":0,"x_max":835,"o":"m 835 783 l 674 42 q 594 -105 647 -51 q 470 -182 542 -158 q 315 -208 399 -206 q 173 -202 240 -211 q 33 -181 106 -193 l 67 107 q 186 101 136 103 q 278 99 236 100 q 365 99 319 99 q 472 100 411 99 l 478 143 l 172 143 l 0 783 l 369 783 l 400 310 l 440 310 l 468 783 l 835 783 z "},"z":{"ha":742,"x_min":33,"x_max":708,"o":"m 33 467 l 33 783 l 708 783 l 708 450 l 333 333 l 333 300 l 708 317 l 708 0 l 33 0 l 33 333 l 408 450 l 408 483 l 33 467 z "},"A":{"ha":853,"x_min":0,"x_max":853,"o":"m 853 0 l 482 0 l 475 156 l 376 156 l 369 0 l 0 0 l 144 893 l 708 893 l 853 0 m 383 261 l 471 261 l 454 626 l 400 626 l 383 261 z "},"B":{"ha":874,"x_min":33,"x_max":857,"o":"m 33 0 l 33 893 l 401 893 q 667 873 567 893 q 813 805 768 853 q 857 674 857 757 q 832 564 857 604 q 766 503 807 524 q 677 476 725 483 q 583 467 629 469 l 583 440 q 677 433 629 440 q 766 403 725 425 q 832 339 807 382 q 857 225 857 296 q 813 91 857 140 q 667 21 768 42 q 401 0 567 0 l 33 0 m 386 499 l 410 499 q 494 514 478 499 q 510 558 510 529 q 488 603 510 588 q 410 618 465 618 q 399 618 401 618 q 386 617 397 618 l 386 499 m 386 403 l 386 276 q 399 275 397 275 q 410 275 401 275 q 486 292 463 275 q 510 340 510 308 q 494 387 510 371 q 410 403 478 403 l 386 403 z "},"C":{"ha":917,"x_min":17,"x_max":900,"o":"m 17 449 q 131 791 17 671 q 458 911 244 911 q 774 802 658 911 q 900 493 889 693 l 551 468 q 528 567 550 533 q 458 601 506 601 q 385 562 407 601 q 364 449 364 522 q 385 334 364 374 q 458 294 407 294 q 526 327 504 294 q 551 422 549 360 l 899 426 q 777 98 892 213 q 458 -17 663 -17 q 218 41 317 -17 q 68 203 119 99 q 17 449 17 308 z "},"D":{"ha":914,"x_min":33,"x_max":897,"o":"m 33 0 l 33 893 l 424 893 q 694 840 590 893 q 848 687 799 786 q 897 449 897 588 q 785 113 897 225 q 424 0 674 0 l 33 0 m 386 600 l 386 297 q 397 296 392 297 q 410 294 403 294 q 518 334 486 294 q 550 449 550 374 q 518 562 550 522 q 410 601 486 601 q 397 601 403 601 q 386 600 392 600 z "},"E":{"ha":700,"x_min":33,"x_max":683,"o":"m 33 0 l 33 893 l 650 893 l 683 576 l 386 576 l 386 492 l 600 492 l 600 392 l 386 392 l 386 317 l 683 317 l 650 0 l 33 0 z "},"F":{"ha":675,"x_min":33,"x_max":667,"o":"m 33 0 l 33 893 l 633 893 l 667 576 l 386 576 l 386 492 l 583 492 l 583 392 l 386 392 l 386 0 l 33 0 z "},"G":{"ha":933,"x_min":17,"x_max":900,"o":"m 17 449 q 131 791 17 671 q 458 911 244 911 q 768 808 653 911 q 899 515 883 706 l 550 485 q 524 572 546 542 q 458 601 503 601 q 385 562 407 601 q 364 449 364 522 q 385 334 364 374 q 458 294 407 294 q 542 360 521 294 l 493 360 l 493 426 l 900 426 l 900 0 l 607 0 l 574 153 l 549 153 q 476 28 531 74 q 314 -17 421 -17 q 96 108 175 -17 q 17 449 17 232 z "},"H":{"ha":886,"x_min":33,"x_max":853,"o":"m 33 0 l 33 893 l 386 893 l 386 450 l 500 450 l 500 893 l 853 893 l 853 0 l 500 0 l 500 343 l 386 343 l 386 0 l 33 0 z "},"I":{"ha":419,"x_min":33,"x_max":386,"o":"m 33 0 l 33 893 l 386 893 l 386 0 l 33 0 z "},"J":{"ha":478,"x_min":8,"x_max":444,"o":"m 444 893 l 444 147 q 419 66 444 103 q 354 6 394 29 q 265 -17 314 -17 q 135 -9 208 -17 q 8 10 63 -1 l 8 283 l 92 283 l 92 893 l 444 893 z "},"K":{"ha":899,"x_min":33,"x_max":882,"o":"m 33 0 l 33 893 l 386 893 l 368 539 l 401 539 l 475 893 l 849 893 q 766 601 849 718 q 528 439 683 483 l 539 407 l 726 442 l 882 0 l 489 0 l 401 338 l 368 338 l 386 0 l 33 0 z "},"L":{"ha":583,"x_min":33,"x_max":583,"o":"m 33 0 l 33 893 l 386 893 l 386 317 l 583 317 l 550 0 l 33 0 z "},"M":{"ha":1110,"x_min":0,"x_max":1110,"o":"m 740 0 l 747 469 l 714 469 l 644 0 l 465 0 l 397 469 l 364 469 l 369 0 l 0 0 l 83 893 l 493 893 l 539 360 l 572 360 l 617 893 l 1026 893 l 1110 0 l 740 0 z "},"N":{"ha":886,"x_min":33,"x_max":853,"o":"m 33 0 l 33 893 l 386 893 l 525 433 l 558 433 l 483 893 l 853 893 l 853 0 l 500 0 l 361 460 l 328 460 l 403 0 l 33 0 z "},"O":{"ha":915,"x_min":17,"x_max":899,"o":"m 17 449 q 131 791 17 671 q 458 911 244 911 q 699 853 601 911 q 848 692 797 796 q 899 449 899 588 q 785 104 899 225 q 458 -17 672 -17 q 218 41 317 -17 q 68 203 119 99 q 17 449 17 308 m 364 449 q 385 334 364 374 q 458 294 407 294 q 531 334 510 294 q 551 449 551 374 q 531 562 551 522 q 458 601 510 601 q 385 562 407 601 q 364 449 364 522 z "},"P":{"ha":869,"x_min":33,"x_max":853,"o":"m 33 0 l 33 893 l 407 893 q 662 847 564 893 q 806 718 760 800 q 853 531 853 636 q 750 287 853 360 q 418 214 647 214 l 386 214 l 386 0 l 33 0 m 386 600 l 386 460 q 405 458 396 458 q 419 458 414 458 q 506 531 506 458 q 419 601 506 601 q 405 601 414 601 q 386 600 396 601 z "},"Q":{"ha":924,"x_min":17,"x_max":961,"o":"m 17 449 q 131 791 17 671 q 458 911 244 911 q 699 853 601 911 q 848 692 797 796 q 899 449 899 588 q 817 158 899 264 q 585 39 736 53 l 592 6 l 926 24 l 961 -258 q 776 -250 869 -260 q 598 -218 682 -240 q 450 -161 514 -196 l 481 -17 q 469 -17 475 -17 q 458 -17 464 -17 q 218 41 317 -17 q 68 203 119 99 q 17 449 17 308 m 364 449 q 385 334 364 374 q 458 294 407 294 q 531 334 510 294 q 551 449 551 374 q 531 562 551 522 q 458 601 510 601 q 385 562 407 601 q 364 449 364 522 z "},"R":{"ha":899,"x_min":33,"x_max":899,"o":"m 33 0 l 33 893 l 419 893 q 683 856 581 893 q 833 755 785 818 q 881 614 881 692 q 855 508 881 550 q 788 441 829 467 q 700 402 747 415 q 609 383 653 389 q 535 375 565 378 l 535 344 l 761 344 l 899 0 l 507 0 l 381 308 l 347 308 l 403 0 l 33 0 m 386 600 l 386 460 q 409 458 397 458 q 428 458 421 458 q 533 531 533 458 q 428 601 533 601 q 409 601 421 601 q 386 600 397 601 z "},"S":{"ha":867,"x_min":17,"x_max":850,"o":"m 32 435 q 55 708 22 603 q 176 861 88 813 q 422 910 264 910 q 662 863 574 910 q 792 728 750 817 q 850 510 835 639 l 506 482 q 481 580 497 543 q 431 617 464 617 q 384 592 401 617 q 367 526 367 568 l 367 482 q 478 468 418 475 q 600 454 539 461 q 713 442 661 447 q 799 432 765 436 q 829 346 818 400 q 840 249 840 292 q 742 53 840 122 q 432 -17 644 -17 q 201 19 286 -17 q 73 132 115 54 q 17 336 31 210 l 368 358 q 376 323 372 347 q 395 278 381 299 q 442 258 410 258 q 489 283 481 258 q 497 331 497 307 l 497 382 q 226 412 344 397 q 32 435 107 426 z "},"T":{"ha":840,"x_min":17,"x_max":824,"o":"m 17 576 l 50 893 l 790 893 l 824 576 l 597 576 l 597 0 l 243 0 l 243 576 l 17 576 z "},"U":{"ha":865,"x_min":33,"x_max":832,"o":"m 33 351 q 33 394 33 354 q 33 494 33 433 q 33 622 33 554 q 33 751 33 690 q 33 851 33 811 q 33 893 33 890 l 382 893 q 381 851 382 892 q 381 750 381 811 q 381 620 381 689 q 381 490 381 551 q 381 388 381 428 q 381 344 381 347 q 392 279 381 297 q 433 261 404 261 q 473 279 461 261 q 485 344 485 297 q 485 388 485 347 q 485 490 485 428 q 485 620 485 551 q 485 750 485 689 q 484 851 485 811 q 483 893 483 892 l 832 893 q 832 851 832 890 q 832 751 832 811 q 832 622 832 690 q 832 494 832 554 q 832 394 832 433 q 832 351 832 354 q 792 137 832 218 q 665 19 753 56 q 433 -17 578 -17 q 128 71 222 -17 q 33 351 33 158 z "},"V":{"ha":853,"x_min":0,"x_max":853,"o":"m 853 893 l 708 0 l 144 0 l 0 893 l 369 893 l 400 267 l 454 267 l 482 893 l 853 893 z "},"W":{"ha":1200,"x_min":0,"x_max":1200,"o":"m 128 0 l 0 893 l 369 893 l 400 267 l 440 267 l 468 893 l 732 893 l 760 267 l 800 267 l 831 893 l 1200 893 l 1072 0 l 650 0 l 624 518 l 586 518 l 567 0 l 128 0 z "},"X":{"ha":839,"x_min":0,"x_max":839,"o":"m 350 893 l 474 569 l 508 585 l 449 893 l 817 893 l 633 450 l 839 0 l 486 0 l 360 328 l 326 314 l 389 0 l 18 0 l 206 443 l 0 893 l 350 893 z "},"Y":{"ha":839,"x_min":0,"x_max":839,"o":"m 839 893 l 681 265 l 597 265 l 597 0 l 243 0 l 243 265 l 158 265 l 0 893 l 369 893 l 400 482 l 440 482 l 468 893 l 839 893 z "},"Z":{"ha":775,"x_min":33,"x_max":742,"o":"m 33 565 l 33 893 l 742 893 l 742 514 l 325 356 l 325 317 l 742 328 l 742 0 l 33 0 l 33 381 l 450 539 l 450 576 l 33 565 z "},".":{"ha":319,"x_min":17,"x_max":303,"o":"m 17 118 q 57 222 17 194 q 161 250 97 250 q 263 222 224 250 q 303 118 303 194 q 263 14 303 42 q 161 -14 224 -14 q 57 14 97 -14 q 17 118 17 42 z "},",":{"ha":338,"x_min":17,"x_max":321,"o":"m 200 15 q 131 -6 167 -6 q 51 26 85 -6 q 17 110 17 58 q 168 250 17 250 q 284 209 250 250 q 319 69 318 168 q 251 -132 321 -65 q 49 -190 182 -199 l 42 -57 q 135 -43 89 -57 q 207 -11 182 -29 l 200 15 z "},"'":{"ha":338,"x_min":17,"x_max":321,"o":"m 200 768 q 131 747 167 747 q 51 779 85 747 q 17 863 17 811 q 168 1003 17 1003 q 284 962 250 1003 q 319 822 318 921 q 251 621 321 688 q 49 563 182 554 l 42 696 q 135 710 89 696 q 207 742 182 724 l 200 768 z "},"\"":{"ha":663,"x_min":18,"x_max":646,"o":"m 201 768 q 132 747 168 747 q 52 779 86 747 q 18 863 18 811 q 169 1003 18 1003 q 285 962 251 1003 q 321 822 319 921 q 253 621 322 688 q 50 563 183 554 l 43 696 q 137 710 90 696 q 208 742 183 724 l 201 768 m 525 768 q 456 747 492 747 q 376 779 410 747 q 342 863 342 811 q 493 1003 342 1003 q 609 962 575 1003 q 644 822 643 921 q 576 621 646 688 q 374 563 507 554 l 367 696 q 460 710 414 696 q 532 742 507 724 l 525 768 z "},"-":{"ha":438,"x_min":33,"x_max":404,"o":"m 33 313 l 33 521 l 404 521 l 404 313 l 33 313 z "},"+":{"ha":600,"x_min":33,"x_max":567,"o":"m 33 313 l 33 521 l 196 521 l 196 683 l 404 683 l 404 521 l 567 521 l 567 313 l 404 313 l 404 150 l 196 150 l 196 313 l 33 313 z "},"*":{"ha":706,"x_min":17,"x_max":689,"o":"m 315 406 l 263 310 l 65 451 l 139 533 q 199 576 161 560 q 268 601 236 592 l 261 625 q 190 607 229 614 q 117 606 150 600 l 17 625 l 90 856 l 181 815 q 238 772 211 801 q 285 714 265 742 l 306 728 q 265 790 286 756 q 242 860 244 825 l 232 954 l 475 954 l 464 860 q 440 790 460 825 q 400 728 421 756 l 421 714 q 467 772 440 742 q 525 815 494 801 l 615 856 l 689 625 l 590 606 q 518 607 557 600 q 446 625 479 614 l 439 601 q 508 576 471 592 q 568 533 544 560 l 642 451 l 444 310 l 392 406 q 371 475 375 436 q 367 549 367 514 l 342 549 q 337 475 342 514 q 315 406 332 436 z "},"^":{"ha":794,"x_min":40,"x_max":753,"o":"m 232 950 l 561 950 l 753 364 l 513 364 l 425 664 l 411 817 l 383 817 l 369 664 l 281 364 l 40 364 l 232 950 z "},"˜":{"ha":463,"x_min":17,"x_max":446,"o":"m 54 842 l 17 978 q 95 1017 63 1006 q 151 1028 128 1028 q 201 1018 181 1028 q 244 998 222 1008 q 299 988 267 988 q 346 994 319 988 q 408 1017 372 1001 l 446 881 q 367 842 400 853 q 311 831 335 831 q 262 840 283 831 q 218 860 240 850 q 164 871 196 871 q 116 864 143 871 q 54 842 89 857 z "},"/":{"ha":494,"x_min":0,"x_max":494,"o":"m 0 -42 l 375 960 l 494 960 l 119 -42 l 0 -42 z "},"\\":{"ha":517,"x_min":0,"x_max":494,"o":"m 494 -42 l 375 -42 l 0 960 l 119 960 l 494 -42 z "},":":{"ha":321,"x_min":18,"x_max":304,"o":"m 18 654 q 58 758 18 731 q 163 786 97 786 q 265 758 225 786 q 304 654 304 731 q 265 550 304 578 q 163 522 225 522 q 58 550 97 522 q 18 654 18 578 m 18 118 q 58 222 18 194 q 163 250 97 250 q 265 222 225 250 q 304 118 304 194 q 265 14 304 42 q 163 -14 225 -14 q 58 14 97 -14 q 18 118 18 42 z "},";":{"ha":338,"x_min":17,"x_max":321,"o":"m 18 654 q 58 758 18 731 q 163 786 97 786 q 265 758 225 786 q 304 654 304 731 q 265 550 304 578 q 163 522 225 522 q 58 550 97 522 q 18 654 18 578 m 200 15 q 131 -6 167 -6 q 51 26 85 -6 q 17 110 17 58 q 168 250 17 250 q 284 209 250 250 q 319 69 318 168 q 251 -132 321 -65 q 49 -190 182 -199 l 42 -57 q 135 -43 89 -57 q 207 -11 182 -29 l 200 15 z "},"<":{"ha":653,"x_min":33,"x_max":619,"o":"m 33 238 l 33 567 l 619 758 l 619 518 l 319 431 l 167 417 l 167 389 l 319 375 l 619 286 l 619 46 l 33 238 z "},"=":{"ha":589,"x_min":33,"x_max":556,"o":"m 33 400 l 33 608 l 556 608 l 556 400 l 33 400 m 33 118 l 33 326 l 556 326 l 556 118 l 33 118 z "},">":{"ha":653,"x_min":33,"x_max":619,"o":"m 619 238 l 33 46 l 33 286 l 333 375 l 486 389 l 486 417 l 333 431 l 33 518 l 33 758 l 619 567 l 619 238 z "},"!":{"ha":436,"x_min":33,"x_max":403,"o":"m 42 296 l 42 893 l 394 893 l 394 296 l 42 296 m 33 118 q 85 222 33 194 q 219 250 136 250 q 351 222 300 250 q 403 118 403 194 q 351 14 403 42 q 219 -14 300 -14 q 85 14 136 -14 q 33 118 33 42 z "},"?":{"ha":826,"x_min":17,"x_max":817,"o":"m 807 381 l 560 354 l 560 265 l 217 265 q 228 359 217 321 q 278 419 240 397 q 369 446 317 442 q 472 450 421 450 l 472 526 q 458 592 472 568 q 422 617 444 617 q 381 580 394 617 q 361 482 367 543 l 17 510 q 74 728 32 639 q 205 863 117 817 q 444 910 293 910 q 668 858 585 910 q 784 690 751 806 q 807 381 817 574 m 204 118 q 256 222 204 194 q 390 250 307 250 q 523 222 472 250 q 574 118 574 194 q 523 14 574 42 q 390 -14 472 -14 q 256 14 307 -14 q 204 118 204 42 z "},"#":{"ha":774,"x_min":0,"x_max":774,"o":"m 14 0 l 110 254 l 0 254 l 0 358 l 149 358 l 206 513 l 57 513 l 57 617 l 244 617 l 349 893 l 468 893 l 364 617 l 540 617 l 644 893 l 764 893 l 660 617 l 774 617 l 774 513 l 621 513 l 564 358 l 717 358 l 717 254 l 525 254 l 429 0 l 310 0 l 406 254 l 229 254 l 133 0 l 14 0 m 268 358 l 444 358 l 501 513 l 325 513 l 268 358 z "},"@":{"ha":1151,"x_min":17,"x_max":1135,"o":"m 1101 107 l 604 107 l 606 257 l 578 257 q 526 135 568 176 q 419 94 483 94 q 265 172 328 94 q 203 406 203 249 q 288 672 203 583 q 515 761 372 761 q 548 701 529 738 q 584 627 567 665 q 613 558 601 589 l 640 558 l 585 749 l 874 749 l 874 211 l 1013 211 q 1026 313 1022 257 q 1031 418 1031 369 q 977 656 1031 554 q 822 815 924 758 q 576 872 719 872 q 337 815 439 872 q 178 656 235 758 q 121 418 121 554 q 178 178 121 281 q 337 19 235 76 q 576 -37 439 -37 q 844 38 733 -37 l 897 -54 q 576 -142 763 -142 q 283 -72 408 -142 q 87 124 157 -1 q 17 418 17 250 q 87 711 17 586 q 283 906 157 836 q 576 976 408 976 q 869 906 744 976 q 1065 711 994 836 q 1135 418 1135 586 q 1131 297 1135 347 q 1119 203 1126 247 q 1101 107 1111 160 m 532 347 q 585 406 585 347 l 585 450 q 571 492 585 475 q 532 508 557 508 q 492 488 504 508 q 481 428 481 467 q 492 368 481 389 q 532 347 504 347 z "},"$":{"ha":867,"x_min":18,"x_max":851,"o":"m 33 435 q 48 678 25 581 q 133 830 71 775 q 304 901 194 885 l 304 1042 l 564 1042 l 564 897 q 719 826 661 878 q 808 696 778 775 q 851 510 839 617 l 507 482 q 482 580 499 543 q 432 617 465 617 q 385 592 403 617 q 368 526 368 568 l 368 482 q 480 468 419 475 q 601 454 540 461 q 715 442 663 447 q 800 432 767 436 q 831 346 819 400 q 842 249 842 292 q 775 78 842 144 q 564 -8 708 11 l 564 -167 l 304 -167 l 304 -8 q 150 47 208 6 q 61 159 92 88 q 18 336 31 231 l 369 358 q 377 323 372 347 q 397 278 382 299 q 443 258 411 258 q 491 283 483 258 q 499 331 499 307 l 499 382 q 227 412 346 397 q 33 435 108 426 z "},"€":{"ha":961,"x_min":17,"x_max":944,"o":"m 17 482 l 17 540 l 67 540 q 201 815 89 718 q 503 911 313 911 q 818 802 703 911 q 944 493 933 693 l 596 468 q 572 567 594 533 q 503 601 550 601 q 421 540 442 601 l 510 540 l 510 482 l 17 482 m 17 376 l 17 435 l 510 435 l 510 376 l 415 376 q 444 315 424 336 q 503 294 465 294 q 571 327 549 294 q 596 422 593 360 l 943 426 q 822 98 936 213 q 503 -17 707 -17 q 196 90 308 -17 q 65 376 83 196 l 17 376 z "},"%":{"ha":1168,"x_min":17,"x_max":1151,"o":"m 464 -42 l 344 -42 l 719 960 l 839 960 l 464 -42 m 17 639 q 74 828 17 761 q 263 894 132 894 q 449 824 393 894 q 506 639 506 754 q 449 449 506 517 q 263 382 393 382 q 74 452 132 382 q 17 639 17 522 m 211 639 q 261 554 211 554 q 301 575 290 554 q 311 639 311 596 q 301 703 311 682 q 261 724 290 724 q 211 639 211 724 m 663 243 q 720 432 663 365 q 908 499 778 499 q 1095 428 1039 499 q 1151 243 1151 358 q 1095 53 1151 121 q 908 -14 1039 -14 q 720 56 778 -14 q 663 243 663 126 m 857 243 q 907 158 857 158 q 947 179 936 158 q 957 243 957 200 q 947 307 957 286 q 907 328 936 328 q 857 243 857 328 z "},"&":{"ha":911,"x_min":17,"x_max":894,"o":"m 894 432 l 813 432 l 813 229 q 765 98 813 153 q 633 15 717 43 q 443 -14 550 -14 q 144 75 257 -14 q 17 321 31 164 l 251 399 l 251 426 l 43 426 l 43 582 q 128 809 36 725 q 393 893 219 893 l 729 893 l 729 601 l 418 601 q 390 591 401 601 q 379 567 379 581 l 379 546 l 894 546 l 894 432 m 519 432 l 451 432 q 353 367 353 428 l 353 338 q 372 298 353 317 q 431 279 392 279 q 501 310 483 279 q 519 432 519 340 z "},"(":{"ha":415,"x_min":33,"x_max":399,"o":"m 33 369 q 71 699 33 546 q 161 963 108 851 l 399 963 q 327 693 356 840 q 299 369 299 546 q 327 46 299 193 q 399 -224 356 -101 l 161 -224 q 71 40 108 -112 q 33 369 33 193 z "},")":{"ha":415,"x_min":17,"x_max":382,"o":"m 382 369 q 344 40 382 193 q 254 -224 307 -112 l 17 -224 q 88 46 60 -101 q 117 369 117 193 q 88 693 117 546 q 17 963 60 840 l 254 963 q 344 699 307 851 q 382 369 382 546 z "},"{":{"ha":494,"x_min":17,"x_max":478,"o":"m 104 -224 l 104 247 q 92 280 104 269 q 64 290 81 290 l 17 290 l 17 449 l 64 449 q 92 459 81 449 q 104 492 104 469 l 104 963 l 478 963 l 478 786 l 354 786 l 354 524 q 328 438 354 481 q 251 369 303 396 q 328 301 303 343 q 354 215 354 258 l 354 -47 l 478 -47 l 478 -224 l 104 -224 z "},"|":{"ha":317,"x_min":33,"x_max":283,"o":"m 33 -224 l 33 963 l 283 963 l 283 -224 l 33 -224 z "},"}":{"ha":494,"x_min":17,"x_max":478,"o":"m 17 -224 l 17 -47 l 140 -47 l 140 215 q 179 308 140 268 q 265 369 218 347 q 179 431 218 392 q 140 524 140 471 l 140 786 l 17 786 l 17 963 l 390 963 l 390 492 q 402 459 390 469 q 431 449 414 449 l 478 449 l 478 290 l 431 290 q 402 280 414 290 q 390 247 390 269 l 390 -224 l 17 -224 z "},"[":{"ha":424,"x_min":33,"x_max":407,"o":"m 33 -224 l 33 963 l 407 963 l 407 786 l 283 786 l 283 -47 l 407 -47 l 407 -224 l 33 -224 z "},"]":{"ha":424,"x_min":17,"x_max":390,"o":"m 390 -224 l 17 -224 l 17 -47 l 140 -47 l 140 786 l 17 786 l 17 963 l 390 963 l 390 -224 z "},"‘":{"ha":338,"x_min":17,"x_max":321,"o":"m 138 786 q 207 807 171 807 q 287 776 253 807 q 321 692 321 744 q 169 551 321 551 q 53 592 88 551 q 18 732 19 633 q 86 933 17 867 q 289 992 156 1000 l 296 858 q 202 844 249 858 q 131 813 156 831 l 138 786 z "},"’":{"ha":338,"x_min":17,"x_max":321,"o":"m 200 768 q 131 747 167 747 q 51 779 85 747 q 17 863 17 811 q 168 1003 17 1003 q 284 962 250 1003 q 319 822 318 921 q 251 621 321 688 q 49 563 182 554 l 42 696 q 135 710 89 696 q 207 742 182 724 l 200 768 z "},"“":{"ha":663,"x_min":18,"x_max":646,"o":"m 463 786 q 532 807 496 807 q 612 776 578 807 q 646 692 646 744 q 494 551 646 551 q 378 592 413 551 q 343 732 344 633 q 411 933 342 867 q 614 992 481 1000 l 621 858 q 527 844 574 858 q 456 813 481 831 l 463 786 m 139 786 q 208 807 172 807 q 288 776 254 807 q 322 692 322 744 q 171 551 322 551 q 55 592 89 551 q 19 732 21 633 q 88 933 18 867 q 290 992 157 1000 l 297 858 q 203 844 250 858 q 132 813 157 831 l 139 786 z "},"”":{"ha":661,"x_min":17,"x_max":644,"o":"m 200 768 q 131 747 167 747 q 51 779 85 747 q 17 863 17 811 q 168 1003 17 1003 q 284 962 250 1003 q 319 822 318 921 q 251 621 321 688 q 49 563 182 554 l 42 696 q 135 710 89 696 q 207 742 182 724 l 200 768 m 524 768 q 454 747 490 747 q 374 779 408 747 q 340 863 340 811 q 492 1003 340 1003 q 608 962 574 1003 q 643 822 642 921 q 575 621 644 688 q 372 563 506 554 l 365 696 q 459 710 413 696 q 531 742 506 724 l 524 768 z "},"‚":{"ha":347,"x_min":17,"x_max":321,"o":"m 200 15 q 131 -6 167 -6 q 51 26 85 -6 q 17 110 17 58 q 168 250 17 250 q 284 209 250 250 q 319 69 318 168 q 251 -132 321 -65 q 49 -190 182 -199 l 42 -57 q 135 -43 89 -57 q 207 -11 182 -29 l 200 15 z "},"„":{"ha":661,"x_min":17,"x_max":644,"o":"m 200 15 q 131 -6 167 -6 q 51 26 85 -6 q 17 110 17 58 q 168 250 17 250 q 284 209 250 250 q 319 69 318 168 q 251 -132 321 -65 q 49 -190 182 -199 l 42 -57 q 135 -43 89 -57 q 207 -11 182 -29 l 200 15 m 524 15 q 454 -6 490 -6 q 374 26 408 -6 q 340 110 340 58 q 492 250 340 250 q 608 209 574 250 q 643 69 642 168 q 575 -132 644 -65 q 372 -190 506 -199 l 365 -57 q 459 -43 413 -57 q 531 -11 506 -29 l 524 15 z "},"•":{"ha":374,"x_min":33,"x_max":340,"o":"m 33 521 q 76 631 33 589 q 188 674 118 674 q 298 631 256 674 q 340 521 340 589 q 298 409 340 451 q 188 367 256 367 q 76 409 118 367 q 33 521 33 451 z "},"_":{"ha":692,"x_min":33,"x_max":658,"o":"m 33 -219 l 33 -39 l 658 -39 l 658 -219 l 33 -219 z "},"–":{"ha":761,"x_min":33,"x_max":728,"o":"m 33 313 l 33 521 l 728 521 l 728 313 l 33 313 z "},"—":{"ha":1457,"x_min":33,"x_max":1424,"o":"m 33 313 l 33 521 l 1424 521 l 1424 311 l 33 313 z "},"¯":{"ha":363,"x_min":17,"x_max":346,"o":"m 17 836 l 17 1003 l 346 1003 l 346 836 l 17 836 z "},"¬":{"ha":761,"x_min":33,"x_max":728,"o":"m 33 368 l 33 576 l 728 576 l 728 171 l 519 171 l 519 368 l 33 368 z "},"¤":{"ha":736,"x_min":33,"x_max":703,"o":"m 556 132 l 475 213 q 365 186 422 186 q 260 211 311 186 l 181 132 l 33 279 l 113 358 q 114 574 61 465 l 33 654 l 181 801 l 261 721 q 368 746 314 746 q 475 721 422 746 l 556 801 l 703 654 l 622 574 q 622 360 674 467 l 703 279 l 556 132 m 313 411 q 368 386 338 386 q 424 411 399 386 q 448 467 447 436 q 424 522 449 497 q 368 547 399 547 q 313 522 338 547 q 288 467 288 497 q 313 411 288 436 z "},"¢":{"ha":840,"x_min":17,"x_max":825,"o":"m 17 392 q 90 651 17 551 q 290 785 163 751 l 290 936 l 550 936 l 550 783 q 733 666 664 751 q 818 457 803 581 l 481 431 q 419 490 472 490 q 370 465 385 490 q 356 392 356 440 q 370 318 356 343 q 419 293 385 293 q 466 315 449 293 q 482 376 483 338 l 822 394 q 755 132 825 233 q 550 -1 685 31 l 550 -171 l 290 -171 l 290 0 q 90 140 163 36 q 17 392 17 243 z "},"−":{"ha":438,"x_min":33,"x_max":404,"o":"m 33 313 l 33 521 l 404 521 l 404 313 l 33 313 z "},"±":{"ha":600,"x_min":33,"x_max":567,"o":"m 33 392 l 33 600 l 196 600 l 196 735 l 404 735 l 404 600 l 567 600 l 567 392 l 404 392 l 404 257 l 196 257 l 196 392 l 33 392 m 33 0 l 33 208 l 567 208 l 567 0 l 33 0 z "},"×":{"ha":592,"x_min":33,"x_max":558,"o":"m 33 532 l 181 679 l 296 564 l 411 679 l 558 532 l 443 417 l 558 301 l 411 154 l 296 269 l 181 154 l 33 301 l 149 417 l 33 532 z "},"÷":{"ha":646,"x_min":33,"x_max":613,"o":"m 179 657 q 219 761 179 733 q 324 789 258 789 q 426 761 386 789 q 465 657 465 733 q 426 553 465 581 q 324 525 386 525 q 219 553 258 525 q 179 657 179 581 m 33 299 l 33 479 l 613 479 l 613 299 l 33 299 m 179 118 q 219 222 179 194 q 324 250 258 250 q 426 222 386 250 q 465 118 465 194 q 426 14 465 42 q 324 -14 386 -14 q 219 14 258 -14 q 179 118 179 42 z "},"¦":{"ha":317,"x_min":33,"x_max":283,"o":"m 33 513 l 33 963 l 283 963 l 283 513 l 33 513 m 33 -224 l 33 226 l 283 226 l 283 -224 l 33 -224 z "},"…":{"ha":967,"x_min":18,"x_max":949,"o":"m 18 118 q 58 222 18 194 q 163 250 97 250 q 265 222 225 250 q 304 118 304 194 q 265 14 304 42 q 163 -14 225 -14 q 58 14 97 -14 q 18 118 18 42 m 340 118 q 380 222 340 194 q 485 250 419 250 q 587 222 547 250 q 626 118 626 194 q 587 14 626 42 q 485 -14 547 -14 q 380 14 419 -14 q 340 118 340 42 m 663 118 q 702 222 663 194 q 807 250 742 250 q 909 222 869 250 q 949 118 949 194 q 909 14 949 42 q 807 -14 869 -14 q 702 14 742 -14 q 663 118 663 42 z "},"·":{"ha":319,"x_min":17,"x_max":303,"o":"m 17 464 q 57 569 17 542 q 161 596 97 596 q 263 569 224 596 q 303 464 303 542 q 263 360 303 388 q 161 332 224 332 q 57 360 97 332 q 17 464 17 388 z "},"¡":{"ha":436,"x_min":33,"x_max":403,"o":"m 33 654 q 85 758 33 731 q 219 786 136 786 q 351 758 300 786 q 403 654 403 731 q 351 550 403 578 q 219 522 300 522 q 85 550 136 522 q 33 654 33 578 m 42 476 l 394 476 l 394 -121 l 42 -121 l 42 476 z "},"¿":{"ha":826,"x_min":8,"x_max":810,"o":"m 622 654 q 571 550 622 578 q 436 522 519 522 q 304 550 356 522 q 253 654 253 578 q 304 758 253 731 q 436 786 356 786 q 571 758 519 786 q 622 654 622 731 m 19 392 l 267 418 l 267 507 l 610 507 q 598 413 610 451 q 549 353 586 375 q 458 326 510 331 q 354 322 406 322 l 354 246 q 367 180 354 204 q 404 156 381 156 q 444 192 431 156 q 465 290 458 229 l 810 263 q 752 44 794 133 q 622 -91 710 -44 q 382 -137 533 -137 q 158 -85 242 -137 q 42 83 75 -33 q 19 392 8 199 z "},"˘":{"ha":474,"x_min":17,"x_max":457,"o":"m 17 1029 l 186 1029 q 238 979 186 979 q 288 1029 288 979 l 457 1029 q 447 958 457 996 q 414 888 438 921 q 347 835 390 856 q 238 815 304 815 q 128 835 171 815 q 60 888 85 856 q 26 958 36 921 q 17 1029 17 996 z "},"˙":{"ha":283,"x_min":17,"x_max":267,"o":"m 17 925 q 51 1010 17 988 q 143 1033 86 1033 q 232 1010 197 1033 q 267 925 267 988 q 232 840 267 863 q 143 817 197 817 q 51 840 86 817 q 17 925 17 863 z "},"˚":{"ha":349,"x_min":17,"x_max":332,"o":"m 17 951 q 60 1065 17 1022 q 175 1108 103 1108 q 289 1065 246 1108 q 332 951 332 1022 q 289 836 332 879 q 175 793 246 793 q 60 836 103 793 q 17 951 17 879 m 131 951 q 143 919 131 932 q 175 907 156 907 q 206 919 194 907 q 218 951 218 932 q 206 982 218 969 q 175 994 194 994 q 143 982 156 994 q 131 951 131 969 z "},"˝":{"ha":450,"x_min":21,"x_max":433,"o":"m 21 818 l 50 1042 l 229 1042 l 151 818 l 21 818 m 225 818 l 254 1042 l 433 1042 l 356 818 l 225 818 z "},"˛":{"ha":343,"x_min":11,"x_max":326,"o":"m 326 -149 l 290 -310 q 194 -306 242 -311 q 106 -283 146 -300 q 43 -235 65 -267 q 17 -141 11 -190 q 53 -47 24 -92 q 124 25 83 -3 l 306 25 q 246 -42 268 -12 q 235 -101 224 -72 q 272 -135 244 -125 q 326 -149 299 -146 z "},"ˇ":{"ha":536,"x_min":17,"x_max":519,"o":"m 519 1028 l 385 822 l 151 822 l 17 1028 l 204 1028 l 268 950 l 332 1028 l 519 1028 z "},"`":{"ha":392,"x_min":17,"x_max":375,"o":"m 375 926 l 297 797 l 17 946 l 115 1103 l 375 926 z "},"ˆ":{"ha":536,"x_min":17,"x_max":519,"o":"m 519 822 l 332 822 l 268 900 l 204 822 l 17 822 l 151 1028 l 385 1028 l 519 822 z "},"¨":{"ha":465,"x_min":17,"x_max":449,"o":"m 17 933 q 45 1006 17 986 q 121 1026 74 1026 q 192 1006 164 1026 q 219 933 219 986 q 192 860 219 881 q 121 840 164 840 q 45 860 74 840 q 17 933 17 881 m 246 933 q 274 1006 246 986 q 350 1026 303 1026 q 421 1006 393 1026 q 449 933 449 986 q 421 860 449 881 q 350 840 393 840 q 274 860 303 840 q 246 933 246 881 z "},"´":{"ha":392,"x_min":14,"x_max":389,"o":"m 14 932 l 285 1117 l 389 944 l 97 788 l 14 932 z "},"¸":{"ha":350,"x_min":17,"x_max":333,"o":"m 42 -308 l 17 -150 q 65 -145 39 -150 q 108 -130 90 -140 q 126 -101 126 -119 q 114 -74 126 -83 q 83 -60 101 -65 l 125 25 l 322 25 l 276 -60 q 314 -97 294 -72 q 333 -164 333 -121 q 303 -239 333 -210 q 226 -283 272 -268 q 130 -303 179 -299 q 42 -308 81 -308 z "},"À":{"ha":853,"x_min":0,"x_max":853,"o":"m 606 1033 l 528 904 l 247 1053 l 346 1210 l 606 1033 m 853 0 l 482 0 l 475 156 l 376 156 l 369 0 l 0 0 l 144 893 l 708 893 l 853 0 m 383 261 l 471 261 l 454 626 l 400 626 l 383 261 z "},"Á":{"ha":853,"x_min":0,"x_max":853,"o":"m 239 1039 l 510 1224 l 614 1051 l 322 894 l 239 1039 m 853 0 l 482 0 l 475 156 l 376 156 l 369 0 l 0 0 l 144 893 l 708 893 l 853 0 m 383 261 l 471 261 l 454 626 l 400 626 l 383 261 z "},"Â":{"ha":853,"x_min":0,"x_max":853,"o":"m 678 929 l 490 929 l 426 1007 l 363 929 l 175 929 l 310 1135 l 543 1135 l 678 929 m 853 0 l 482 0 l 475 156 l 376 156 l 369 0 l 0 0 l 144 893 l 708 893 l 853 0 m 383 261 l 471 261 l 454 626 l 400 626 l 383 261 z "},"Ã":{"ha":853,"x_min":0,"x_max":853,"o":"m 250 949 l 213 1085 q 291 1124 258 1113 q 347 1135 324 1135 q 397 1124 375 1135 q 440 1104 418 1114 q 494 1094 463 1094 q 542 1101 515 1094 q 604 1124 569 1108 l 642 988 q 563 949 596 960 q 507 938 531 938 q 457 948 478 938 q 414 968 436 958 q 360 978 392 978 q 313 971 339 978 q 250 949 286 964 m 853 0 l 482 0 l 475 156 l 376 156 l 369 0 l 0 0 l 144 893 l 708 893 l 853 0 m 383 261 l 471 261 l 454 626 l 400 626 l 383 261 z "},"Ä":{"ha":853,"x_min":0,"x_max":853,"o":"m 211 1040 q 240 1113 211 1093 q 315 1133 268 1133 q 386 1113 358 1133 q 414 1040 414 1093 q 386 967 414 988 q 315 947 358 947 q 240 967 268 947 q 211 1040 211 988 m 440 1040 q 469 1113 440 1093 q 544 1133 497 1133 q 615 1113 588 1133 q 643 1040 643 1093 q 615 967 643 988 q 544 947 588 947 q 469 967 497 947 q 440 1040 440 988 m 853 0 l 482 0 l 475 156 l 376 156 l 369 0 l 0 0 l 144 893 l 708 893 l 853 0 m 383 261 l 471 261 l 454 626 l 400 626 l 383 261 z "},"Å":{"ha":853,"x_min":0,"x_max":853,"o":"m 269 1058 q 313 1172 269 1129 q 428 1215 356 1215 q 542 1172 499 1215 q 585 1058 585 1129 q 542 943 585 986 q 428 900 499 900 q 313 943 356 900 q 269 1058 269 986 m 383 1058 q 396 1026 383 1039 q 428 1014 408 1014 q 459 1026 447 1014 q 471 1058 471 1039 q 459 1090 471 1078 q 428 1101 447 1101 q 396 1090 408 1101 q 383 1058 383 1078 m 853 0 l 482 0 l 475 156 l 376 156 l 369 0 l 0 0 l 144 893 l 708 893 l 853 0 m 383 261 l 471 261 l 454 626 l 400 626 l 383 261 z "},"Ç":{"ha":917,"x_min":17,"x_max":900,"o":"m 17 449 q 131 791 17 671 q 458 911 244 911 q 774 802 658 911 q 900 493 889 693 l 551 468 q 528 567 550 533 q 458 601 506 601 q 385 562 407 601 q 364 449 364 522 q 385 334 364 374 q 458 294 407 294 q 526 327 504 294 q 551 422 549 360 l 899 426 q 813 140 892 250 q 590 -3 733 31 l 560 -60 q 597 -97 578 -72 q 617 -164 617 -121 q 586 -239 617 -210 q 509 -283 556 -268 q 413 -303 463 -299 q 325 -308 364 -308 l 300 -150 q 348 -145 322 -150 q 392 -130 374 -140 q 410 -101 410 -119 q 397 -74 410 -83 q 367 -60 385 -65 l 390 -12 q 113 132 208 8 q 17 449 17 256 z "},"È":{"ha":700,"x_min":33,"x_max":683,"o":"m 529 1033 l 451 904 l 171 1053 l 269 1210 l 529 1033 m 33 0 l 33 893 l 650 893 l 683 576 l 386 576 l 386 492 l 600 492 l 600 392 l 386 392 l 386 317 l 683 317 l 650 0 l 33 0 z "},"É":{"ha":700,"x_min":33,"x_max":683,"o":"m 163 1039 l 433 1224 l 538 1051 l 246 894 l 163 1039 m 33 0 l 33 893 l 650 893 l 683 576 l 386 576 l 386 492 l 600 492 l 600 392 l 386 392 l 386 317 l 683 317 l 650 0 l 33 0 z "},"Ê":{"ha":700,"x_min":33,"x_max":683,"o":"m 601 929 l 414 929 l 350 1007 l 286 929 l 99 929 l 233 1135 l 467 1135 l 601 929 m 33 0 l 33 893 l 650 893 l 683 576 l 386 576 l 386 492 l 600 492 l 600 392 l 386 392 l 386 317 l 683 317 l 650 0 l 33 0 z "},"Ë":{"ha":700,"x_min":33,"x_max":683,"o":"m 135 1040 q 163 1113 135 1093 q 239 1133 192 1133 q 310 1113 282 1133 q 338 1040 338 1093 q 310 967 338 988 q 239 947 282 947 q 163 967 192 947 q 135 1040 135 988 m 364 1040 q 392 1113 364 1093 q 468 1133 421 1133 q 539 1113 511 1133 q 567 1040 567 1093 q 539 967 567 988 q 468 947 511 947 q 392 967 421 947 q 364 1040 364 988 m 33 0 l 33 893 l 650 893 l 683 576 l 386 576 l 386 492 l 600 492 l 600 392 l 386 392 l 386 317 l 683 317 l 650 0 l 33 0 z "},"Ì":{"ha":419,"x_min":31,"x_max":389,"o":"m 389 1033 l 311 904 l 31 1053 l 129 1210 l 389 1033 m 33 0 l 33 893 l 386 893 l 386 0 l 33 0 z "},"Í":{"ha":419,"x_min":22,"x_max":397,"o":"m 22 1039 l 293 1224 l 397 1051 l 106 894 l 22 1039 m 33 0 l 33 893 l 386 893 l 386 0 l 33 0 z "},"Î":{"ha":419,"x_min":-42,"x_max":461,"o":"m 461 929 l 274 929 l 210 1007 l 146 929 l -42 929 l 93 1135 l 326 1135 l 461 929 m 33 0 l 33 893 l 386 893 l 386 0 l 33 0 z "},"Ï":{"ha":419,"x_min":-7,"x_max":425,"o":"m -7 1040 q 22 1113 -7 1093 q 97 1133 50 1133 q 168 1113 140 1133 q 196 1040 196 1093 q 168 967 196 988 q 97 947 140 947 q 22 967 50 947 q -7 1040 -7 988 m 222 1040 q 251 1113 222 1093 q 326 1133 279 1133 q 397 1113 369 1133 q 425 1040 425 1093 q 397 967 425 988 q 326 947 369 947 q 251 967 279 947 q 222 1040 222 988 m 33 0 l 33 893 l 386 893 l 386 0 l 33 0 z "},"Ñ":{"ha":886,"x_min":33,"x_max":853,"o":"m 267 949 l 229 1085 q 308 1124 275 1113 q 364 1135 340 1135 q 413 1124 392 1135 q 457 1104 435 1114 q 511 1094 479 1094 q 559 1101 532 1094 q 621 1124 586 1108 l 658 988 q 580 949 613 960 q 524 938 547 938 q 474 948 494 938 q 431 968 453 958 q 376 978 408 978 q 329 971 356 978 q 267 949 303 964 m 33 0 l 33 893 l 386 893 l 525 433 l 558 433 l 483 893 l 853 893 l 853 0 l 500 0 l 361 460 l 328 460 l 403 0 l 33 0 z "},"Ò":{"ha":915,"x_min":17,"x_max":899,"o":"m 638 1033 l 560 904 l 279 1053 l 378 1210 l 638 1033 m 17 449 q 131 791 17 671 q 458 911 244 911 q 699 853 601 911 q 848 692 797 796 q 899 449 899 588 q 785 104 899 225 q 458 -17 672 -17 q 218 41 317 -17 q 68 203 119 99 q 17 449 17 308 m 364 449 q 385 334 364 374 q 458 294 407 294 q 531 334 510 294 q 551 449 551 374 q 531 562 551 522 q 458 601 510 601 q 385 562 407 601 q 364 449 364 522 z "},"Ó":{"ha":915,"x_min":17,"x_max":899,"o":"m 17 449 q 102 757 17 640 q 350 901 188 874 l 271 1039 l 542 1224 l 646 1051 l 375 906 q 415 910 394 908 q 458 911 436 911 q 699 853 601 911 q 848 692 797 796 q 899 449 899 588 q 785 104 899 225 q 458 -17 672 -17 q 218 41 317 -17 q 68 203 119 99 q 17 449 17 308 m 364 449 q 385 334 364 374 q 458 294 407 294 q 531 334 510 294 q 551 449 551 374 q 531 562 551 522 q 458 601 510 601 q 385 562 407 601 q 364 449 364 522 z "},"Ô":{"ha":915,"x_min":17,"x_max":899,"o":"m 710 929 l 522 929 l 458 1007 l 394 929 l 207 929 l 342 1135 l 575 1135 l 710 929 m 17 449 q 131 791 17 671 q 458 911 244 911 q 699 853 601 911 q 848 692 797 796 q 899 449 899 588 q 785 104 899 225 q 458 -17 672 -17 q 218 41 317 -17 q 68 203 119 99 q 17 449 17 308 m 364 449 q 385 334 364 374 q 458 294 407 294 q 531 334 510 294 q 551 449 551 374 q 531 562 551 522 q 458 601 510 601 q 385 562 407 601 q 364 449 364 522 z "},"Õ":{"ha":915,"x_min":17,"x_max":899,"o":"m 281 949 l 243 1085 q 322 1124 289 1113 q 378 1135 354 1135 q 427 1124 406 1135 q 471 1104 449 1114 q 525 1094 493 1094 q 573 1101 546 1094 q 635 1124 600 1108 l 672 988 q 594 949 626 960 q 538 938 561 938 q 488 948 508 938 q 444 968 467 958 q 390 978 422 978 q 343 971 369 978 q 281 949 317 964 m 17 449 q 131 791 17 671 q 458 911 244 911 q 699 853 601 911 q 848 692 797 796 q 899 449 899 588 q 785 104 899 225 q 458 -17 672 -17 q 218 41 317 -17 q 68 203 119 99 q 17 449 17 308 m 364 449 q 385 334 364 374 q 458 294 407 294 q 531 334 510 294 q 551 449 551 374 q 531 562 551 522 q 458 601 510 601 q 385 562 407 601 q 364 449 364 522 z "},"Ö":{"ha":915,"x_min":17,"x_max":899,"o":"m 242 1040 q 270 1113 242 1093 q 346 1133 299 1133 q 417 1113 389 1133 q 444 1040 444 1093 q 417 967 444 988 q 346 947 389 947 q 270 967 299 947 q 242 1040 242 988 m 471 1040 q 499 1113 471 1093 q 575 1133 528 1133 q 646 1113 618 1133 q 674 1040 674 1093 q 646 967 674 988 q 575 947 618 947 q 499 967 528 947 q 471 1040 471 988 m 17 449 q 131 791 17 671 q 458 911 244 911 q 699 853 601 911 q 848 692 797 796 q 899 449 899 588 q 785 104 899 225 q 458 -17 672 -17 q 218 41 317 -17 q 68 203 119 99 q 17 449 17 308 m 364 449 q 385 334 364 374 q 458 294 407 294 q 531 334 510 294 q 551 449 551 374 q 531 562 551 522 q 458 601 510 601 q 385 562 407 601 q 364 449 364 522 z "},"Š":{"ha":867,"x_min":17,"x_max":850,"o":"m 685 1135 l 550 929 l 317 929 l 182 1135 l 369 1135 l 433 1057 l 497 1135 l 685 1135 m 32 435 q 55 708 22 603 q 176 861 88 813 q 422 910 264 910 q 662 863 574 910 q 792 728 750 817 q 850 510 835 639 l 506 482 q 481 580 497 543 q 431 617 464 617 q 384 592 401 617 q 367 526 367 568 l 367 482 q 478 468 418 475 q 600 454 539 461 q 713 442 661 447 q 799 432 765 436 q 829 346 818 400 q 840 249 840 292 q 742 53 840 122 q 432 -17 644 -17 q 201 19 286 -17 q 73 132 115 54 q 17 336 31 210 l 368 358 q 376 323 372 347 q 395 278 381 299 q 442 258 410 258 q 489 283 481 258 q 497 331 497 307 l 497 382 q 226 412 344 397 q 32 435 107 426 z "},"Ù":{"ha":865,"x_min":33,"x_max":832,"o":"m 613 1033 l 535 904 l 254 1053 l 353 1210 l 613 1033 m 33 351 q 33 394 33 354 q 33 494 33 433 q 33 622 33 554 q 33 751 33 690 q 33 851 33 811 q 33 893 33 890 l 382 893 q 381 851 382 892 q 381 750 381 811 q 381 620 381 689 q 381 490 381 551 q 381 388 381 428 q 381 344 381 347 q 392 279 381 297 q 433 261 404 261 q 473 279 461 261 q 485 344 485 297 q 485 388 485 347 q 485 490 485 428 q 485 620 485 551 q 485 750 485 689 q 484 851 485 811 q 483 893 483 892 l 832 893 q 832 851 832 890 q 832 751 832 811 q 832 622 832 690 q 832 494 832 554 q 832 394 832 433 q 832 351 832 354 q 792 137 832 218 q 665 19 753 56 q 433 -17 578 -17 q 128 71 222 -17 q 33 351 33 158 z "},"Ú":{"ha":865,"x_min":33,"x_max":832,"o":"m 246 1039 l 517 1224 l 621 1051 l 329 894 l 246 1039 m 33 351 q 33 394 33 354 q 33 494 33 433 q 33 622 33 554 q 33 751 33 690 q 33 851 33 811 q 33 893 33 890 l 382 893 q 381 851 382 892 q 381 750 381 811 q 381 620 381 689 q 381 490 381 551 q 381 388 381 428 q 381 344 381 347 q 392 279 381 297 q 433 261 404 261 q 473 279 461 261 q 485 344 485 297 q 485 388 485 347 q 485 490 485 428 q 485 620 485 551 q 485 750 485 689 q 484 851 485 811 q 483 893 483 892 l 832 893 q 832 851 832 890 q 832 751 832 811 q 832 622 832 690 q 832 494 832 554 q 832 394 832 433 q 832 351 832 354 q 792 137 832 218 q 665 19 753 56 q 433 -17 578 -17 q 128 71 222 -17 q 33 351 33 158 z "},"Û":{"ha":865,"x_min":33,"x_max":832,"o":"m 685 929 l 497 929 l 433 1007 l 369 929 l 182 929 l 317 1135 l 550 1135 l 685 929 m 33 351 q 33 394 33 354 q 33 494 33 433 q 33 622 33 554 q 33 751 33 690 q 33 851 33 811 q 33 893 33 890 l 382 893 q 381 851 382 892 q 381 750 381 811 q 381 620 381 689 q 381 490 381 551 q 381 388 381 428 q 381 344 381 347 q 392 279 381 297 q 433 261 404 261 q 473 279 461 261 q 485 344 485 297 q 485 388 485 347 q 485 490 485 428 q 485 620 485 551 q 485 750 485 689 q 484 851 485 811 q 483 893 483 892 l 832 893 q 832 851 832 890 q 832 751 832 811 q 832 622 832 690 q 832 494 832 554 q 832 394 832 433 q 832 351 832 354 q 792 137 832 218 q 665 19 753 56 q 433 -17 578 -17 q 128 71 222 -17 q 33 351 33 158 z "},"Ü":{"ha":865,"x_min":33,"x_max":832,"o":"m 217 1040 q 245 1113 217 1093 q 321 1133 274 1133 q 392 1113 364 1133 q 419 1040 419 1093 q 392 967 419 988 q 321 947 364 947 q 245 967 274 947 q 217 1040 217 988 m 446 1040 q 474 1113 446 1093 q 550 1133 503 1133 q 621 1113 593 1133 q 649 1040 649 1093 q 621 967 649 988 q 550 947 593 947 q 474 967 503 947 q 446 1040 446 988 m 33 351 q 33 394 33 354 q 33 494 33 433 q 33 622 33 554 q 33 751 33 690 q 33 851 33 811 q 33 893 33 890 l 382 893 q 381 851 382 892 q 381 750 381 811 q 381 620 381 689 q 381 490 381 551 q 381 388 381 428 q 381 344 381 347 q 392 279 381 297 q 433 261 404 261 q 473 279 461 261 q 485 344 485 297 q 485 388 485 347 q 485 490 485 428 q 485 620 485 551 q 485 750 485 689 q 484 851 485 811 q 483 893 483 892 l 832 893 q 832 851 832 890 q 832 751 832 811 q 832 622 832 690 q 832 494 832 554 q 832 394 832 433 q 832 351 832 354 q 792 137 832 218 q 665 19 753 56 q 433 -17 578 -17 q 128 71 222 -17 q 33 351 33 158 z "},"Ÿ":{"ha":839,"x_min":0,"x_max":839,"o":"m 204 1040 q 233 1113 204 1093 q 308 1133 261 1133 q 379 1113 351 1133 q 407 1040 407 1093 q 379 967 407 988 q 308 947 351 947 q 233 967 261 947 q 204 1040 204 988 m 433 1040 q 462 1113 433 1093 q 538 1133 490 1133 q 608 1113 581 1133 q 636 1040 636 1093 q 608 967 636 988 q 538 947 581 947 q 462 967 490 947 q 433 1040 433 988 m 839 893 l 681 265 l 597 265 l 597 0 l 243 0 l 243 265 l 158 265 l 0 893 l 369 893 l 400 482 l 440 482 l 468 893 l 839 893 z "},"Ý":{"ha":839,"x_min":0,"x_max":839,"o":"m 232 1039 l 503 1224 l 607 1051 l 315 894 l 232 1039 m 839 893 l 681 265 l 597 265 l 597 0 l 243 0 l 243 265 l 158 265 l 0 893 l 369 893 l 400 482 l 440 482 l 468 893 l 839 893 z "},"Ž":{"ha":775,"x_min":33,"x_max":742,"o":"m 639 1135 l 504 929 l 271 929 l 136 1135 l 324 1135 l 388 1057 l 451 1135 l 639 1135 m 33 565 l 33 893 l 742 893 l 742 514 l 325 356 l 325 317 l 742 328 l 742 0 l 33 0 l 33 381 l 450 539 l 450 576 l 33 565 z "},"à":{"ha":828,"x_min":17,"x_max":794,"o":"m 593 926 l 515 797 l 235 946 l 333 1103 l 593 926 m 492 189 q 446 82 467 129 q 401 -17 425 35 q 114 35 208 -22 q 18 218 19 93 q 93 371 17 317 q 297 435 169 425 q 408 431 344 439 q 524 417 471 424 l 525 457 q 433 477 483 471 q 332 483 383 483 q 213 473 272 482 q 107 449 154 464 l 49 725 q 238 781 131 761 q 450 800 346 800 q 624 767 546 800 q 749 676 703 733 q 794 549 794 619 l 794 0 l 492 0 l 525 189 l 492 189 m 456 285 l 456 294 q 448 334 456 315 q 414 353 440 353 q 379 335 389 353 q 369 290 369 317 q 379 244 369 264 q 414 225 389 225 q 447 242 439 225 q 456 285 456 258 z "},"á":{"ha":828,"x_min":17,"x_max":794,"o":"m 492 189 q 446 82 467 129 q 401 -17 425 35 q 114 35 208 -22 q 18 218 19 93 q 93 371 17 317 q 297 435 169 425 q 408 431 344 439 q 524 417 471 424 l 525 457 q 433 477 483 471 q 332 483 383 483 q 213 473 272 482 q 107 449 154 464 l 49 725 q 169 765 103 749 q 308 790 236 782 l 226 932 l 497 1117 l 601 944 l 318 792 q 450 800 385 800 q 624 767 546 800 q 749 676 703 733 q 794 549 794 619 l 794 0 l 492 0 l 525 189 l 492 189 m 456 285 l 456 294 q 448 334 456 315 q 414 353 440 353 q 379 335 389 353 q 369 290 369 317 q 379 244 369 264 q 414 225 389 225 q 447 242 439 225 q 456 285 456 258 z "},"â":{"ha":828,"x_min":17,"x_max":794,"o":"m 665 822 l 478 822 l 414 900 l 350 822 l 163 822 l 297 1028 l 531 1028 l 665 822 m 492 189 q 446 82 467 129 q 401 -17 425 35 q 114 35 208 -22 q 18 218 19 93 q 93 371 17 317 q 297 435 169 425 q 408 431 344 439 q 524 417 471 424 l 525 457 q 433 477 483 471 q 332 483 383 483 q 213 473 272 482 q 107 449 154 464 l 49 725 q 238 781 131 761 q 450 800 346 800 q 624 767 546 800 q 749 676 703 733 q 794 549 794 619 l 794 0 l 492 0 l 525 189 l 492 189 m 456 285 l 456 294 q 448 334 456 315 q 414 353 440 353 q 379 335 389 353 q 369 290 369 317 q 379 244 369 264 q 414 225 389 225 q 447 242 439 225 q 456 285 456 258 z "},"ã":{"ha":828,"x_min":17,"x_max":794,"o":"m 238 842 l 200 978 q 278 1017 246 1006 q 335 1028 311 1028 q 385 1018 364 1028 q 428 998 406 1008 q 482 988 450 988 q 529 994 503 988 q 592 1017 556 1001 l 629 881 q 551 842 583 853 q 494 831 518 831 q 445 840 467 831 q 401 860 424 850 q 347 871 379 871 q 299 864 326 871 q 238 842 272 857 m 492 189 q 446 82 467 129 q 401 -17 425 35 q 114 35 208 -22 q 18 218 19 93 q 93 371 17 317 q 297 435 169 425 q 408 431 344 439 q 524 417 471 424 l 525 457 q 433 477 483 471 q 332 483 383 483 q 213 473 272 482 q 107 449 154 464 l 49 725 q 238 781 131 761 q 450 800 346 800 q 624 767 546 800 q 749 676 703 733 q 794 549 794 619 l 794 0 l 492 0 l 525 189 l 492 189 m 456 285 l 456 294 q 448 334 456 315 q 414 353 440 353 q 379 335 389 353 q 369 290 369 317 q 379 244 369 264 q 414 225 389 225 q 447 242 439 225 q 456 285 456 258 z "},"ä":{"ha":828,"x_min":17,"x_max":794,"o":"m 199 933 q 227 1006 199 986 q 303 1026 256 1026 q 374 1006 346 1026 q 401 933 401 986 q 374 860 401 881 q 303 840 346 840 q 227 860 256 840 q 199 933 199 881 m 428 933 q 456 1006 428 986 q 532 1026 485 1026 q 603 1006 575 1026 q 631 933 631 986 q 603 860 631 881 q 532 840 575 840 q 456 860 485 840 q 428 933 428 881 m 492 189 q 446 82 467 129 q 401 -17 425 35 q 114 35 208 -22 q 18 218 19 93 q 93 371 17 317 q 297 435 169 425 q 408 431 344 439 q 524 417 471 424 l 525 457 q 433 477 483 471 q 332 483 383 483 q 213 473 272 482 q 107 449 154 464 l 49 725 q 238 781 131 761 q 450 800 346 800 q 624 767 546 800 q 749 676 703 733 q 794 549 794 619 l 794 0 l 492 0 l 525 189 l 492 189 m 456 285 l 456 294 q 448 334 456 315 q 414 353 440 353 q 379 335 389 353 q 369 290 369 317 q 379 244 369 264 q 414 225 389 225 q 447 242 439 225 q 456 285 456 258 z "},"å":{"ha":828,"x_min":17,"x_max":794,"o":"m 492 189 q 446 82 467 129 q 401 -17 425 35 q 114 35 208 -22 q 18 218 19 93 q 93 371 17 317 q 297 435 169 425 q 408 431 344 439 q 524 417 471 424 l 525 457 q 433 477 483 471 q 332 483 383 483 q 213 473 272 482 q 107 449 154 464 l 49 725 q 201 773 115 754 q 374 797 286 792 q 288 850 319 808 q 257 951 257 892 q 300 1065 257 1022 q 415 1108 343 1108 q 529 1065 486 1108 q 572 951 572 1022 q 544 853 572 893 q 465 800 515 814 q 633 763 558 797 q 751 673 707 729 q 794 549 794 617 l 794 0 l 492 0 l 525 189 l 492 189 m 371 951 q 383 919 371 932 q 415 907 396 907 q 446 919 433 907 q 458 951 458 932 q 446 982 458 969 q 415 994 433 994 q 383 982 396 994 q 371 951 371 969 m 456 285 l 456 294 q 448 334 456 315 q 414 353 440 353 q 379 335 389 353 q 369 290 369 317 q 379 244 369 264 q 414 225 389 225 q 447 242 439 225 q 456 285 456 258 z "},"ç":{"ha":839,"x_min":17,"x_max":825,"o":"m 17 392 q 66 613 17 522 q 206 752 115 704 q 419 800 297 800 q 617 758 532 800 q 754 638 703 715 q 818 457 806 561 l 481 431 q 419 490 472 490 q 370 465 385 490 q 356 392 356 440 q 370 318 356 343 q 419 293 385 293 q 466 315 449 293 q 482 376 483 338 l 822 394 q 755 133 825 235 q 553 -1 685 32 l 521 -60 q 558 -97 539 -72 q 578 -164 578 -121 q 547 -239 578 -210 q 470 -283 517 -268 q 374 -303 424 -299 q 286 -308 325 -308 l 261 -150 q 309 -145 283 -150 q 353 -130 335 -140 q 371 -101 371 -119 q 358 -74 371 -83 q 328 -60 346 -65 l 351 -12 q 174 56 249 1 q 58 195 99 110 q 17 392 17 281 z "},"è":{"ha":839,"x_min":17,"x_max":822,"o":"m 599 926 l 521 797 l 240 946 l 339 1103 l 599 926 m 17 392 q 66 613 17 522 q 206 752 115 704 q 419 800 297 800 q 617 758 532 800 q 754 638 703 715 q 818 457 806 561 l 818 406 l 356 406 q 372 322 357 350 q 419 293 386 293 q 463 310 449 293 q 482 360 478 328 l 822 360 q 704 81 811 178 q 419 -17 597 -17 q 206 35 297 -17 q 66 178 115 86 q 17 392 17 269 m 357 457 l 476 457 q 419 540 465 540 q 357 457 364 540 z "},"é":{"ha":839,"x_min":17,"x_max":822,"o":"m 17 392 q 96 660 17 557 q 314 790 175 763 l 232 932 l 503 1117 l 607 944 l 324 792 q 419 800 367 800 q 617 758 532 800 q 754 638 703 715 q 818 457 806 561 l 818 406 l 356 406 q 372 322 357 350 q 419 293 386 293 q 463 310 449 293 q 482 360 478 328 l 822 360 q 704 81 811 178 q 419 -17 597 -17 q 206 35 297 -17 q 66 178 115 86 q 17 392 17 269 m 357 457 l 476 457 q 419 540 465 540 q 357 457 364 540 z "},"ê":{"ha":839,"x_min":17,"x_max":822,"o":"m 671 822 l 483 822 l 419 900 l 356 822 l 168 822 l 303 1028 l 536 1028 l 671 822 m 17 392 q 66 613 17 522 q 206 752 115 704 q 419 800 297 800 q 617 758 532 800 q 754 638 703 715 q 818 457 806 561 l 818 406 l 356 406 q 372 322 357 350 q 419 293 386 293 q 463 310 449 293 q 482 360 478 328 l 822 360 q 704 81 811 178 q 419 -17 597 -17 q 206 35 297 -17 q 66 178 115 86 q 17 392 17 269 m 357 457 l 476 457 q 419 540 465 540 q 357 457 364 540 z "},"ë":{"ha":839,"x_min":17,"x_max":822,"o":"m 204 933 q 233 1006 204 986 q 308 1026 261 1026 q 379 1006 351 1026 q 407 933 407 986 q 379 860 407 881 q 308 840 351 840 q 233 860 261 840 q 204 933 204 881 m 433 933 q 462 1006 433 986 q 538 1026 490 1026 q 608 1006 581 1026 q 636 933 636 986 q 608 860 636 881 q 538 840 581 840 q 462 860 490 840 q 433 933 433 881 m 17 392 q 66 613 17 522 q 206 752 115 704 q 419 800 297 800 q 617 758 532 800 q 754 638 703 715 q 818 457 806 561 l 818 406 l 356 406 q 372 322 357 350 q 419 293 386 293 q 463 310 449 293 q 482 360 478 328 l 822 360 q 704 81 811 178 q 419 -17 597 -17 q 206 35 297 -17 q 66 178 115 86 q 17 392 17 269 m 357 457 l 476 457 q 419 540 465 540 q 357 457 364 540 z "},"ñ":{"ha":876,"x_min":33,"x_max":843,"o":"m 261 842 l 224 978 q 302 1017 269 1006 q 358 1028 335 1028 q 408 1018 386 1028 q 451 998 429 1008 q 506 988 474 988 q 553 994 526 988 q 615 1017 581 1001 l 653 881 q 574 842 607 853 q 518 831 542 831 q 468 840 489 831 q 425 860 447 850 q 371 871 403 871 q 324 864 350 871 q 261 842 297 857 m 33 0 l 33 783 l 386 783 l 369 501 l 403 501 l 465 801 q 656 776 571 804 q 792 699 742 749 q 843 586 843 649 l 843 0 l 490 0 l 490 401 q 444 451 490 451 q 411 444 425 451 q 386 426 397 436 l 386 0 l 33 0 z "},"ò":{"ha":839,"x_min":17,"x_max":822,"o":"m 599 926 l 521 797 l 240 946 l 339 1103 l 599 926 m 17 392 q 66 613 17 522 q 206 752 115 704 q 419 800 297 800 q 633 749 543 800 q 773 606 724 697 q 822 392 822 514 q 714 90 822 196 q 419 -17 606 -17 q 206 35 297 -17 q 66 178 115 86 q 17 392 17 269 m 356 392 q 370 318 356 343 q 419 293 385 293 q 469 318 456 293 q 483 392 483 343 q 469 465 483 440 q 419 490 456 490 q 370 465 385 490 q 356 392 356 440 z "},"ó":{"ha":839,"x_min":17,"x_max":822,"o":"m 17 392 q 96 660 17 557 q 314 790 175 763 l 232 932 l 503 1117 l 607 944 l 324 792 q 419 800 367 800 q 633 749 543 800 q 773 606 724 697 q 822 392 822 514 q 714 90 822 196 q 419 -17 606 -17 q 206 35 297 -17 q 66 178 115 86 q 17 392 17 269 m 356 392 q 370 318 356 343 q 419 293 385 293 q 469 318 456 293 q 483 392 483 343 q 469 465 483 440 q 419 490 456 490 q 370 465 385 490 q 356 392 356 440 z "},"ô":{"ha":839,"x_min":17,"x_max":822,"o":"m 671 822 l 483 822 l 419 900 l 356 822 l 168 822 l 303 1028 l 536 1028 l 671 822 m 17 392 q 66 613 17 522 q 206 752 115 704 q 419 800 297 800 q 633 749 543 800 q 773 606 724 697 q 822 392 822 514 q 714 90 822 196 q 419 -17 606 -17 q 206 35 297 -17 q 66 178 115 86 q 17 392 17 269 m 356 392 q 370 318 356 343 q 419 293 385 293 q 469 318 456 293 q 483 392 483 343 q 469 465 483 440 q 419 490 456 490 q 370 465 385 490 q 356 392 356 440 z "},"õ":{"ha":839,"x_min":17,"x_max":822,"o":"m 243 842 l 206 978 q 284 1017 251 1006 q 340 1028 317 1028 q 390 1018 369 1028 q 433 998 411 1008 q 488 988 456 988 q 535 994 508 988 q 597 1017 561 1001 l 635 881 q 556 842 589 853 q 500 831 524 831 q 451 840 472 831 q 407 860 429 850 q 353 871 385 871 q 305 864 332 871 q 243 842 278 857 m 17 392 q 66 613 17 522 q 206 752 115 704 q 419 800 297 800 q 633 749 543 800 q 773 606 724 697 q 822 392 822 514 q 714 90 822 196 q 419 -17 606 -17 q 206 35 297 -17 q 66 178 115 86 q 17 392 17 269 m 356 392 q 370 318 356 343 q 419 293 385 293 q 469 318 456 293 q 483 392 483 343 q 469 465 483 440 q 419 490 456 490 q 370 465 385 490 q 356 392 356 440 z "},"ö":{"ha":839,"x_min":17,"x_max":822,"o":"m 204 933 q 233 1006 204 986 q 308 1026 261 1026 q 379 1006 351 1026 q 407 933 407 986 q 379 860 407 881 q 308 840 351 840 q 233 860 261 840 q 204 933 204 881 m 433 933 q 462 1006 433 986 q 538 1026 490 1026 q 608 1006 581 1026 q 636 933 636 986 q 608 860 636 881 q 538 840 581 840 q 462 860 490 840 q 433 933 433 881 m 17 392 q 66 613 17 522 q 206 752 115 704 q 419 800 297 800 q 633 749 543 800 q 773 606 724 697 q 822 392 822 514 q 714 90 822 196 q 419 -17 606 -17 q 206 35 297 -17 q 66 178 115 86 q 17 392 17 269 m 356 392 q 370 318 356 343 q 419 293 385 293 q 469 318 456 293 q 483 392 483 343 q 469 465 483 440 q 419 490 456 490 q 370 465 385 490 q 356 392 356 440 z "},"š":{"ha":840,"x_min":17,"x_max":824,"o":"m 672 1028 l 538 822 l 304 822 l 169 1028 l 357 1028 l 421 950 l 485 1028 l 672 1028 m 31 389 q 107 704 18 608 q 410 800 196 800 q 709 711 614 800 q 824 457 804 622 l 485 431 q 467 483 482 460 q 425 507 453 507 q 377 495 394 507 q 360 460 360 483 l 361 422 q 525 410 444 417 q 672 396 606 403 q 778 385 738 389 q 806 308 796 357 q 815 222 815 260 q 713 46 815 108 q 418 -17 610 -17 q 130 57 224 -17 q 17 300 36 131 l 361 319 q 379 283 367 306 q 428 260 392 260 q 476 306 476 260 l 476 339 q 299 357 385 347 q 144 375 214 367 q 31 389 75 383 z "},"ù":{"ha":876,"x_min":33,"x_max":843,"o":"m 618 926 l 540 797 l 260 946 l 358 1103 l 618 926 m 843 783 l 843 0 l 490 0 l 507 282 l 474 282 l 411 -18 q 220 7 306 -21 q 84 85 135 35 q 33 197 33 135 l 33 783 l 386 783 l 386 382 q 432 332 386 332 q 465 340 450 332 q 490 357 479 347 l 490 783 l 843 783 z "},"ú":{"ha":876,"x_min":33,"x_max":843,"o":"m 251 932 l 522 1117 l 626 944 l 335 788 l 251 932 m 843 783 l 843 0 l 490 0 l 507 282 l 474 282 l 411 -18 q 220 7 306 -21 q 84 85 135 35 q 33 197 33 135 l 33 783 l 386 783 l 386 382 q 432 332 386 332 q 465 340 450 332 q 490 357 479 347 l 490 783 l 843 783 z "},"û":{"ha":876,"x_min":33,"x_max":843,"o":"m 690 822 l 503 822 l 439 900 l 375 822 l 188 822 l 322 1028 l 556 1028 l 690 822 m 843 783 l 843 0 l 490 0 l 507 282 l 474 282 l 411 -18 q 220 7 306 -21 q 84 85 135 35 q 33 197 33 135 l 33 783 l 386 783 l 386 382 q 432 332 386 332 q 465 340 450 332 q 490 357 479 347 l 490 783 l 843 783 z "},"ü":{"ha":876,"x_min":33,"x_max":843,"o":"m 222 933 q 251 1006 222 986 q 326 1026 279 1026 q 397 1006 369 1026 q 425 933 425 986 q 397 860 425 881 q 326 840 369 840 q 251 860 279 840 q 222 933 222 881 m 451 933 q 480 1006 451 986 q 556 1026 508 1026 q 626 1006 599 1026 q 654 933 654 986 q 626 860 654 881 q 556 840 599 840 q 480 860 508 840 q 451 933 451 881 m 843 783 l 843 0 l 490 0 l 507 282 l 474 282 l 411 -18 q 220 7 306 -21 q 84 85 135 35 q 33 197 33 135 l 33 783 l 386 783 l 386 382 q 432 332 386 332 q 465 340 450 332 q 490 357 479 347 l 490 783 l 843 783 z "},"ý":{"ha":835,"x_min":0,"x_max":835,"o":"m 231 932 l 501 1117 l 606 944 l 314 788 l 231 932 m 835 783 l 674 42 q 594 -105 647 -51 q 470 -182 542 -158 q 315 -208 399 -206 q 173 -202 240 -211 q 33 -181 106 -193 l 67 107 q 186 101 136 103 q 278 99 236 100 q 365 99 319 99 q 472 100 411 99 l 478 143 l 172 143 l 0 783 l 369 783 l 400 310 l 440 310 l 468 783 l 835 783 z "},"ÿ":{"ha":835,"x_min":0,"x_max":835,"o":"m 201 933 q 230 1006 201 986 q 306 1026 258 1026 q 376 1006 349 1026 q 404 933 404 986 q 376 860 404 881 q 306 840 349 840 q 230 860 258 840 q 201 933 201 881 m 431 933 q 459 1006 431 986 q 535 1026 488 1026 q 606 1006 578 1026 q 633 933 633 986 q 606 860 633 881 q 535 840 578 840 q 459 860 488 840 q 431 933 431 881 m 835 783 l 674 42 q 594 -105 647 -51 q 470 -182 542 -158 q 315 -208 399 -206 q 173 -202 240 -211 q 33 -181 106 -193 l 67 107 q 186 101 136 103 q 278 99 236 100 q 365 99 319 99 q 472 100 411 99 l 478 143 l 172 143 l 0 783 l 369 783 l 400 310 l 440 310 l 468 783 l 835 783 z "},"ž":{"ha":742,"x_min":33,"x_max":708,"o":"m 622 1028 l 488 822 l 254 822 l 119 1028 l 307 1028 l 371 950 l 435 1028 l 622 1028 m 33 467 l 33 783 l 708 783 l 708 450 l 333 333 l 333 300 l 708 317 l 708 0 l 33 0 l 33 333 l 408 450 l 408 483 l 33 467 z "},"ı":{"ha":419,"x_min":33,"x_max":386,"o":"m 33 0 l 33 667 l 386 667 l 386 0 l 33 0 z "},"ì":{"ha":419,"x_min":31,"x_max":389,"o":"m 389 857 l 311 728 l 31 876 l 129 1033 l 389 857 m 33 0 l 33 667 l 386 667 l 386 0 l 33 0 z "},"í":{"ha":419,"x_min":22,"x_max":397,"o":"m 22 863 l 293 1047 l 397 875 l 106 718 l 22 863 m 33 0 l 33 667 l 386 667 l 386 0 l 33 0 z "},"î":{"ha":419,"x_min":-42,"x_max":461,"o":"m 461 753 l 274 753 l 210 831 l 146 753 l -42 753 l 93 958 l 326 958 l 461 753 m 33 0 l 33 667 l 386 667 l 386 0 l 33 0 z "},"ï":{"ha":419,"x_min":-7,"x_max":425,"o":"m -7 864 q 22 937 -7 917 q 97 957 50 957 q 168 937 140 957 q 196 864 196 917 q 168 791 196 811 q 97 771 140 771 q 22 791 50 771 q -7 864 -7 811 m 222 864 q 251 937 222 917 q 326 957 279 957 q 397 937 369 957 q 425 864 425 917 q 397 791 425 811 q 326 771 369 771 q 251 791 279 771 q 222 864 222 811 m 33 0 l 33 667 l 386 667 l 386 0 l 33 0 z "}}}
